<?xml version="1.0" standalone="no"?><!DOCTYPE svg PUBLIC "-//W3C//DTD SVG 1.1//EN" "http://www.w3.org/Graphics/SVG/1.1/DTD/svg11.dtd"><svg t="1621258427883" class="icon" viewBox="0 0 1024 1024" version="1.1" xmlns="http://www.w3.org/2000/svg" p-id="11060" xmlns:xlink="http://www.w3.org/1999/xlink" width="128" height="128"><defs><style type="text/css"></style></defs><path d="M764.2 668.3c-57 0-118.4-21.5-177.6-62.1-44.4-30.4-71.7-60.5-72.8-61.8l-7.7-8.5 7.7-8.5c1.1-1.3 28.5-31.4 72.8-61.8 59.2-40.6 120.6-62.1 177.6-62.1s118.4 21.5 177.6 62.1c44.3 30.4 71.7 60.5 72.8 61.8l7.7 8.5-7.7 8.5c-1.1 1.3-28.5 31.4-72.8 61.8-59.2 40.6-120.6 62.1-177.6 62.1zM541 535.8c11 10.8 32.3 30.3 60.5 49.7 38.2 26.1 97.4 57.2 162.7 57.2 105.5 0 196-80.2 223.2-106.9-11-10.8-32.3-30.3-60.5-49.7-38.2-26.1-97.4-57.2-162.7-57.2-105.5 0-196 80.2-223.2 106.9z" fill="#231815" p-id="11061"></path><path d="M282.2 668.3c-57 0-118.4-21.5-177.6-62.1-44.4-30.4-71.7-60.5-72.8-61.8l-7.7-8.5 7.7-8.5c1.1-1.3 28.5-31.4 72.8-61.8 59.2-40.6 120.6-62.1 177.6-62.1s118.4 21.5 177.6 62.1c44.4 30.4 71.7 60.5 72.8 61.8l7.7 8.5-7.7 8.5c-1.1 1.3-28.5 31.4-72.8 61.8-59.2 40.6-120.6 62.1-177.6 62.1zM59 535.8c11 10.8 32.3 30.3 60.5 49.7 38.2 26.1 97.4 57.2 162.7 57.2 105.5 0 196-80.2 223.2-106.9-11-10.8-32.3-30.3-60.5-49.7-38.2-26.1-97.4-57.2-162.7-57.2-105.5 0-196 80.2-223.2 106.9z" fill="#231815" p-id="11062"></path><path d="M182.4 195s160.9-8.3 255 85.8 85.8 255 85.8 255-160.9 8.3-255-85.8-85.8-255-85.8-255z" fill="#FFFFFF" p-id="11063"></path><path d="M512.8 548.8c-15.8 0-47-1.1-84.2-8-70.6-13.1-129.2-41.4-169.5-81.7-40.3-40.3-68.6-98.9-81.7-169.5-9.8-52.9-7.9-93.5-7.8-95.2l0.6-11.5 11.5-0.6c1.7-0.1 42.3-2 95.2 7.8 70.6 13.1 129.2 41.4 169.5 81.7 40.3 40.3 68.6 98.9 81.7 169.5 9.8 52.9 7.9 93.5 7.8 95.2l-0.6 11.5-11.5 0.6c-0.5 0-4.4 0.2-11 0.2zM194.9 207.6c0.1 15.4 1.4 44.3 7.7 77.9C211.1 331 231 394.9 277.2 441c74.6 74.6 195.3 81.9 233.4 82.2-0.1-15.4-1.4-44.3-7.7-77.9-8.5-45.5-28.4-109.4-74.6-155.5-74.5-74.6-195.2-81.9-233.4-82.2z" fill="#231815" p-id="11064"></path><path d="M864.1 194.9s8.3 160.9-85.8 255-255 85.8-255 85.8-8.3-160.9 85.8-255 255-85.8 255-85.8z" fill="#FFFFFF" p-id="11065"></path><path d="M533.6 548.7c-6.6 0-10.5-0.2-11-0.2l-11.5-0.6-0.6-11.5c-0.1-1.7-2-42.3 7.8-95.2 13.1-70.6 41.4-129.2 81.7-169.5 40.3-40.3 98.9-68.6 169.5-81.7 52.9-9.8 93.5-7.9 95.2-7.8l11.5 0.6 0.6 11.5c0.1 1.7 2 42.3-7.8 95.2-13.1 70.5-41.3 129.1-81.7 169.5-40.3 40.3-98.9 68.6-169.5 81.7-37.2 6.9-68.4 8-84.2 8z m317.9-341.2c-15.4 0.1-44.3 1.4-77.9 7.7-45.5 8.5-109.4 28.4-155.5 74.6-74.6 74.6-81.9 195.3-82.2 233.4 15.4-0.1 44.3-1.4 77.9-7.7 45.5-8.5 109.4-28.4 155.5-74.6 74.6-74.6 81.9-195.3 82.2-233.4zM510.6 550.7h25.5v460.8h-25.5z" fill="#231815" p-id="11066"></path><path d="M523.2 53.8s119.7 107.9 119.7 241-119.7 241-119.7 241-119.7-107.9-119.7-241 119.7-241 119.7-241z" fill="#FFFFFF" p-id="11067"></path><path d="M523.2 553l-8.5-7.7c-1.3-1.1-31.4-28.5-61.8-72.8-40.6-59.2-62.1-120.6-62.1-177.6s21.5-118.4 62.1-177.6c30.4-44.4 60.5-71.7 61.8-72.8l8.5-7.7 8.5 7.7c1.3 1.1 31.4 28.5 61.8 72.8 40.6 59.2 62.1 120.6 62.1 177.6s-21.5 118.4-62.1 177.6c-30.4 44.4-60.5 71.7-61.8 72.8l-8.5 7.7z m0-481.4c-10.8 11-30.3 32.3-49.7 60.5-26.1 38.2-57.2 97.4-57.2 162.7 0 105.5 80.2 196 106.9 223.2 10.8-11 30.3-32.3 49.7-60.5 26.1-38.2 57.2-97.4 57.2-162.7S599 170.3 572.9 132.1c-19.4-28.2-38.9-49.5-49.7-60.5z" fill="#231815" p-id="11068"></path></svg>